<?xml version="1.0" encoding="UTF-8"?><svg id="Layer_1" xmlns="http://www.w3.org/2000/svg" viewBox="0 0 340 84.43"><defs><style>.cls-1{fill:#bcefa4;}</style></defs><rect class="cls-1" y="14.43" width="340" height="70"/><g><path d="M75.15,17.66c0,2.72,.09,4.84,.27,6.38h-2.04c-1.95-7.73-4.46-13.31-7.53-16.74-3.07-3.42-6.38-5.14-9.92-5.14h-.09V52.82c0,2.48,.25,4.28,.75,5.4,.5,1.12,1.42,1.88,2.75,2.26,1.33,.38,3.44,.58,6.33,.58v1.77c-8.32-.18-14.79-.27-19.39-.27-4.19,0-10.27,.09-18.24,.27v-1.77c2.89,0,5-.19,6.33-.58,1.33-.38,2.24-1.14,2.75-2.26,.5-1.12,.75-2.92,.75-5.4V2.16h-.09c-3.6,0-6.92,1.7-9.96,5.09-3.04,3.4-5.53,8.99-7.48,16.78h-2.04c.18-1.53,.27-3.66,.27-6.38,0-5.14-.21-10.98-.62-17.53,5.61,.18,15.26,.27,28.96,.27s23.26-.09,28.87-.27c-.41,6.55-.62,12.4-.62,17.53Z"/><path d="M27.53,63.34v-2.78h.5c2.84,0,4.92-.19,6.19-.56,1.19-.34,1.98-.99,2.43-1.98,.47-1.05,.71-2.8,.71-5.2V2.67c-3.33,.15-6.39,1.8-9.18,4.91-2.97,3.32-5.45,8.89-7.37,16.57l-.09,.38h-2.99l.06-.56c.17-1.51,.26-3.63,.26-6.32,0-5.09-.21-10.98-.62-17.5l-.03-.55,.55,.02c5.59,.18,15.33,.27,28.94,.27s23.27-.09,28.85-.27l.55-.02-.03,.55c-.41,6.5-.62,12.39-.62,17.5,0,2.69,.09,4.81,.26,6.32l.06,.56h-2.99l-.1-.38c-1.92-7.62-4.41-13.18-7.42-16.53-2.84-3.16-5.91-4.83-9.13-4.96V52.82c0,2.4,.24,4.15,.71,5.2,.44,.99,1.24,1.64,2.43,1.98,1.27,.37,3.36,.56,6.19,.56h.5v2.78h-.51c-8.27-.19-14.8-.28-19.38-.28-4.18,0-10.31,.09-18.23,.27h-.51Zm18.74-1.27c4.5,0,10.85,.09,18.89,.25v-.76c-2.71-.02-4.67-.22-5.97-.59-1.47-.42-2.5-1.28-3.06-2.54-.54-1.19-.8-3.03-.8-5.61V1.66h.5c3.76,0,7.22,1.78,10.38,5.3,3.06,3.42,5.6,8.99,7.54,16.57h1.09c-.14-1.49-.21-3.47-.21-5.88,0-4.99,.2-10.71,.59-17.02-5.67,.17-15.2,.25-28.34,.25s-22.75-.08-28.43-.25c.39,6.33,.59,12.05,.59,17.02,0,2.41-.07,4.38-.21,5.88h1.09c1.95-7.64,4.47-13.23,7.5-16.62,3.12-3.49,6.6-5.26,10.34-5.26h.5l.09,.5V52.82c0,2.57-.26,4.41-.8,5.61-.56,1.26-1.59,2.11-3.06,2.53-1.3,.38-3.26,.57-5.97,.59v.76c7.68-.17,13.65-.25,17.74-.25Z"/></g><g><path d="M131.56,62.83c-4.02-.18-10.77-.27-20.28-.27-13.82,0-24.15,.09-31,.27v-1.77c1.89-.12,3.26-.35,4.12-.71,.85-.35,1.43-1.03,1.73-2.04,.29-1,.44-2.63,.44-4.87V9.51c0-2.24-.16-3.87-.49-4.87-.33-1-.9-1.68-1.73-2.04-.83-.35-2.18-.59-4.07-.71V.13c6.85,.18,17.18,.27,31,.27,8.68,0,14.85-.09,18.51-.27-.41,5.55-.62,10.51-.62,14.88,0,2.72,.09,4.84,.27,6.38h-2.04c-1.06-6.85-3.04-11.76-5.93-14.75-2.89-2.98-6.35-4.47-10.36-4.47h-1.15c-1.59,0-2.76,.13-3.5,.4-.74,.27-1.24,.77-1.51,1.51-.27,.74-.4,1.96-.4,3.67V30.41h.89c3.07,0,5.7-1.21,7.88-3.63,2.18-2.42,3.57-5.11,4.16-8.06h2.04c-.18,2.48-.27,5.26-.27,8.32v4.25c0,3.01,.18,7.2,.53,12.58h-2.04c-.53-3.37-1.9-6.15-4.12-8.37-2.21-2.21-4.95-3.32-8.19-3.32h-.89v23.03c0,1.71,.13,2.94,.4,3.68,.27,.74,.77,1.24,1.51,1.51,.74,.27,1.9,.4,3.5,.4h2.92c3.42,0,6.67-1.67,9.74-5,3.07-3.33,5.25-8.66,6.55-15.98h2.04c-.18,2.13-.27,4.84-.27,8.15,0,6.02,.21,10.98,.62,14.88Z"/><path d="M132.12,63.35l-.58-.03c-3.99-.18-10.8-.27-20.26-.27-13.75,0-24.18,.09-30.98,.27h-.51s0-2.74,0-2.74l.47-.03c1.82-.11,3.16-.34,3.96-.67,.71-.3,1.19-.86,1.44-1.72,.28-.95,.42-2.55,.42-4.73V9.51c0-2.18-.16-3.76-.46-4.72-.28-.87-.75-1.43-1.45-1.73-.77-.33-2.08-.55-3.91-.67l-.47-.03V-.39h.51c6.82,.19,17.25,.28,30.98,.28,8.62,0,14.84-.09,18.48-.27l.56-.03-.04,.56c-.41,5.5-.62,10.5-.62,14.84,0,2.68,.09,4.81,.26,6.32l.06,.56h-3.03l-.07-.42c-1.04-6.71-2.99-11.58-5.8-14.47-2.78-2.87-6.15-4.32-10-4.32h-1.15c-1.53,0-2.65,.12-3.33,.37-.6,.21-.99,.61-1.2,1.21-.24,.68-.37,1.86-.37,3.51V29.91h.39c2.91,0,5.44-1.17,7.51-3.47,2.11-2.34,3.47-4.97,4.04-7.82l.08-.4h2.98l-.04,.54c-.18,2.45-.26,5.24-.26,8.29v4.25c0,2.98,.18,7.2,.53,12.54l.04,.53h-3l-.07-.42c-.51-3.24-1.85-5.97-3.98-8.09s-4.74-3.17-7.84-3.17h-.39v22.53c0,1.65,.12,2.83,.37,3.51,.21,.6,.61,.99,1.2,1.2,.68,.25,1.8,.37,3.33,.37h2.92c3.26,0,6.42-1.63,9.37-4.84,2.99-3.25,5.15-8.54,6.43-15.73l.07-.41h3l-.05,.54c-.17,2.1-.26,4.83-.26,8.11,0,5.98,.21,10.97,.62,14.83l.06,.58Zm-51.33-1.83v.79c6.82-.17,17.08-.25,30.5-.25,9.03,0,15.66,.08,19.72,.24-.37-3.81-.56-8.63-.56-14.35,0-3.03,.08-5.6,.23-7.65h-1.08c-1.32,7.17-3.54,12.5-6.6,15.82-3.15,3.43-6.56,5.17-10.11,5.17h-2.92c-1.67,0-2.87-.14-3.67-.43-.88-.32-1.49-.92-1.81-1.81-.29-.8-.43-2.06-.43-3.84V31.68h1.39c3.37,0,6.25,1.17,8.55,3.47,2.19,2.19,3.59,4.95,4.19,8.22h1.08c-.33-5.11-.5-9.17-.5-12.08v-4.25c0-2.85,.08-5.48,.23-7.82h-1.1c-.65,2.87-2.06,5.53-4.2,7.89-2.27,2.52-5.05,3.8-8.25,3.8h-1.39V7.74c0-1.79,.14-3.04,.43-3.84,.32-.88,.93-1.49,1.81-1.81,.8-.29,2-.43,3.67-.43h1.15c4.13,0,7.74,1.56,10.72,4.62,2.89,2.98,4.91,7.89,6,14.59h1.06c-.14-1.5-.21-3.47-.21-5.88,0-4.22,.2-9.05,.58-14.35-3.72,.16-9.76,.24-17.97,.24-13.4,0-23.66-.08-30.5-.25v.79c1.72,.13,2.96,.37,3.77,.72,.96,.41,1.64,1.2,2.01,2.34,.34,1.07,.51,2.71,.51,5.03V53.44c0,2.31-.15,3.95-.46,5.01-.34,1.15-1.02,1.94-2.02,2.36-.84,.35-2.09,.58-3.81,.71Z"/></g><g><path d="M214.23,2.61c-.86,.35-1.43,1.03-1.73,2.04-.3,1-.44,2.63-.44,4.87V53.44c0,2.24,.16,3.87,.49,4.87,.32,1,.9,1.68,1.73,2.04,.83,.35,2.18,.59,4.07,.71v1.77c-3.6-.18-8.83-.27-15.67-.27s-12.4,.09-15.76,.27v-1.77c2.13-.12,3.68-.35,4.65-.71,.97-.35,1.64-1.03,1.99-2.04,.35-1,.53-2.63,.53-4.87V8.18l-21.34,54.55h-1.42L146.35,5.88V45.47c0,4.37,.18,7.51,.53,9.43,.35,1.92,1.14,3.32,2.35,4.21,1.21,.89,3.23,1.54,6.07,1.95v1.77c-2.42-.18-5.73-.27-9.92-.27-3.13,0-5.58,.09-7.35,.27v-1.77c1.83-.41,3.19-1.05,4.07-1.9,.89-.85,1.48-2.17,1.77-3.94,.29-1.77,.44-4.43,.44-7.97V9.51c0-2.24-.16-3.87-.49-4.87-.33-1-.9-1.68-1.73-2.04-.83-.35-2.19-.59-4.07-.71V.13c1.77,.18,4.22,.27,7.35,.27,7.08,0,13.2-.09,18.33-.27l16.74,37.64L194.97,.39h7.71c6.85,0,12.07-.09,15.67-.27V1.9c-1.89,.12-3.26,.35-4.12,.71Z"/><path d="M137.52,63.38v-2.72l.39-.09c1.73-.39,3.02-.99,3.84-1.78,.8-.77,1.35-2.01,1.63-3.66,.29-1.74,.44-4.39,.44-7.89V9.51c0-2.18-.16-3.76-.46-4.72-.28-.87-.75-1.43-1.45-1.73-.77-.33-2.08-.55-3.91-.67l-.47-.03V-.43l.55,.05c1.75,.17,4.21,.26,7.3,.26,7.04,0,13.2-.09,18.31-.27h.34s16.39,36.84,16.39,36.84L194.62-.11h8.05c6.8,0,12.07-.09,15.65-.27l.52-.03V2.37l-.47,.03c-1.83,.12-3.16,.34-3.96,.67h0c-.72,.3-1.19,.86-1.44,1.72-.28,.95-.42,2.54-.42,4.73V53.44c0,2.18,.16,3.77,.46,4.72,.28,.87,.75,1.43,1.45,1.73,.77,.33,2.09,.56,3.91,.67l.47,.03v2.77l-.52-.03c-3.57-.18-8.84-.27-15.65-.27s-12.4,.09-15.74,.27l-.53,.03v-2.77l.47-.03c2.06-.11,3.58-.34,4.51-.68,.83-.3,1.39-.87,1.69-1.73,.33-.94,.5-2.53,.5-4.7V10.84l-20.5,52.4h-2.08l-24.15-54.97V45.47c0,4.32,.18,7.46,.52,9.34,.33,1.78,1.05,3.09,2.15,3.89,1.14,.83,3.1,1.46,5.84,1.86l.43,.06v2.74l-.54-.04c-2.4-.18-5.72-.26-9.88-.26-3.1,0-5.56,.09-7.3,.26l-.55,.06Zm65.15-1.32c6.5,0,11.6,.08,15.17,.24v-.78c-1.72-.13-2.95-.37-3.77-.72-.96-.41-1.64-1.2-2.01-2.34-.34-1.06-.51-2.7-.51-5.02V9.51c0-2.32,.15-3.96,.46-5.01,.34-1.15,1.02-1.94,2.01-2.36h0c.84-.35,2.09-.58,3.81-.71V.65c-3.58,.16-8.68,.24-15.17,.24h-7.36l-14.83,38.17L163.39,.64c-5.06,.17-11.12,.25-18.01,.25-2.82,0-5.12-.07-6.85-.22v.76c1.72,.13,2.96,.37,3.77,.72,.96,.41,1.64,1.2,2.01,2.34,.34,1.07,.51,2.71,.51,5.03V47.24c0,3.55-.15,6.26-.45,8.05-.31,1.87-.96,3.29-1.92,4.22-.88,.85-2.2,1.51-3.92,1.94v.83c1.73-.14,4.03-.22,6.85-.22,3.88,0,7.05,.08,9.42,.23v-.81c-2.72-.43-4.64-1.08-5.86-1.98-1.31-.96-2.17-2.48-2.54-4.52-.36-1.94-.54-5.14-.54-9.52V3.5l25.8,58.74h.75L194.58,5.53V53.44c0,2.32-.18,3.97-.56,5.04-.4,1.15-1.18,1.93-2.29,2.34-.96,.35-2.37,.58-4.32,.71v.77c3.37-.16,8.5-.24,15.26-.24Z"/></g><g><path d="M280.03,59.59c.92,.92,1.82,1.4,2.7,1.46v1.77c-4.25-.18-9.62-.27-16.12-.27s-11.69,.09-14.88,.27v-1.77c2.24-.12,3.84-.4,4.78-.84,.94-.44,1.42-1.22,1.42-2.35,0-1.06-.35-2.48-1.06-4.25l-5.23-14.52h-17.89l-1.51,3.99c-1.95,5.02-2.92,8.86-2.92,11.51,0,2.42,.68,4.07,2.04,4.96,1.36,.89,3.37,1.39,6.02,1.51v1.77c-4.43-.18-8.3-.27-11.6-.27-2.78,0-5.05,.09-6.82,.27v-1.77c1.48-.24,2.86-1.15,4.16-2.75,1.3-1.59,2.63-4.13,3.98-7.62L246.77,.13c1.89,.12,3.45,.18,4.69,.18s2.71-.06,4.6-.18l21.43,55.26c.77,1.89,1.61,3.29,2.52,4.21Zm-29-22.27l-8.06-22.14-8.5,22.14h16.56Z"/><path d="M218.47,63.38v-2.75l.42-.07c1.34-.21,2.64-1.08,3.85-2.57,1.26-1.55,2.57-4.06,3.91-7.48L246.44-.4l.36,.02c1.86,.12,3.43,.18,4.66,.18s2.72-.06,4.57-.18l.37-.02,21.56,55.6c.73,1.81,1.55,3.17,2.41,4.03h0c.82,.82,1.62,1.27,2.38,1.32l.47,.03v2.76l-.52-.02c-4.22-.18-9.64-.27-16.1-.27s-11.69,.09-14.85,.26l-.53,.03v-2.77l.47-.02c2.17-.11,3.71-.38,4.6-.79,.77-.36,1.13-.96,1.13-1.89,0-.99-.35-2.36-1.03-4.06l-5.11-14.21h-17.19l-1.38,3.66c-1.92,4.94-2.89,8.75-2.89,11.34,0,2.23,.61,3.76,1.81,4.54,1.28,.83,3.22,1.31,5.77,1.43l.48,.02v2.77l-.52-.02c-8.07-.32-14.52-.39-18.35,0l-.55,.06Zm7.32-1.32c3.17,0,6.9,.08,11.1,.25v-.78c-2.5-.16-4.45-.68-5.8-1.56-1.5-.98-2.26-2.79-2.26-5.38s.99-6.64,2.96-11.69l1.63-4.3h18.59l5.34,14.85c.73,1.83,1.09,3.28,1.09,4.42,0,1.31-.59,2.28-1.7,2.8-.95,.44-2.42,.72-4.49,.86v.77c3.19-.16,8.03-.24,14.38-.24s11.46,.08,15.62,.25v-.82c-.85-.18-1.71-.7-2.55-1.54-.96-.96-1.85-2.43-2.63-4.37L255.74,.65c-1.72,.1-3.15,.16-4.27,.16-1.18,0-2.64-.05-4.36-.16l-19.53,50.23c-1.37,3.52-2.74,6.12-4.06,7.75-1.25,1.54-2.61,2.49-4.05,2.84v.81c1.7-.14,3.82-.22,6.32-.22Zm25.95-24.24h-18l9.24-24.07,8.76,24.07Zm-16.55-1h15.12l-7.36-20.21-7.76,20.21Z"/></g><path d="M319.55,25.85c-.94-.22-4.06-.34-9.36-.34h-12.52l-1.28,10.5c1.26-.94,2.88-1.69,4.88-2.26,2-.56,4.28-.84,6.83-.84,4.58,0,8.05,1.01,10.4,3.03,2.36,2.02,3.53,4.6,3.53,7.74,0,3.32-1.44,6.26-4.31,8.82-2.87,2.56-6.6,4.52-11.18,5.89-4.58,1.37-9.29,2.05-14.14,2.05v-1.21c2.92-.04,5.69-.68,8.31-1.92,2.63-1.24,4.76-3,6.4-5.29,1.64-2.29,2.46-4.98,2.46-8.08,0-2.78-.61-4.92-1.82-6.4-1.21-1.48-3.01-2.22-5.39-2.22-1.3,0-2.46,.21-3.47,.64-1.01,.43-2.01,1.04-3,1.85l-1.08-.74,2.69-21.75c.9,.18,2.11,.27,3.64,.27h13.4c.99,0,1.74-.16,2.26-.47,.52-.31,.82-.85,.91-1.62h1.55c0,5.75,.09,9.85,.27,12.32Z"/></svg>