<?xml version="1.0" encoding="UTF-8"?><svg id="Layer_1" xmlns="http://www.w3.org/2000/svg" viewBox="0 0 340 91.86"><defs><style>.cls-1{fill:#498af2;}</style></defs><rect class="cls-1" y="21.86" width="340" height="70"/><g><path d="M156.13,13.05c-.87,.36-1.46,1.05-1.75,2.07-.3,1.02-.45,2.67-.45,4.95v44.64c0,2.28,.16,3.93,.49,4.95,.33,1.02,.91,1.71,1.76,2.07,.84,.36,2.22,.6,4.14,.72v1.8c-3.24-.18-8.28-.27-15.12-.27s-12.21,.09-15.93,.27v-1.8c1.92-.12,3.31-.36,4.19-.72,.87-.36,1.45-1.05,1.75-2.07,.3-1.02,.45-2.67,.45-4.95v-21.6h-20.25v21.6c0,2.28,.16,3.93,.49,4.95,.33,1.02,.91,1.71,1.76,2.07,.84,.36,2.22,.6,4.14,.72v1.8c-3.48-.18-8.49-.27-15.03-.27-7.26,0-12.6,.09-16.02,.27v-1.8c1.92-.12,3.31-.36,4.19-.72,.87-.36,1.45-1.05,1.75-2.07,.3-1.02,.45-2.67,.45-4.95V20.07c0-2.28-.17-3.93-.5-4.95-.33-1.02-.92-1.71-1.75-2.07-.84-.36-2.22-.6-4.14-.72v-1.8c3.42,.18,8.76,.27,16.02,.27,6.48,0,11.49-.09,15.03-.27v1.8c-1.92,.12-3.32,.36-4.19,.72-.87,.36-1.46,1.05-1.75,2.07-.3,1.02-.45,2.67-.45,4.95v21.24h20.25V20.07c0-2.28-.17-3.93-.5-4.95-.33-1.02-.92-1.71-1.75-2.07-.84-.36-2.22-.6-4.14-.72v-1.8c3.72,.18,9.03,.27,15.93,.27s11.88-.09,15.12-.27v1.8c-1.92,.12-3.32,.36-4.19,.72Z"/><path d="M217.47,74.25c-4.08-.18-10.95-.27-20.61-.27-14.04,0-24.54,.09-31.5,.27v-1.8c1.92-.12,3.31-.36,4.19-.72,.87-.36,1.45-1.05,1.75-2.07,.3-1.02,.45-2.67,.45-4.95V20.07c0-2.28-.17-3.93-.5-4.95-.33-1.02-.92-1.71-1.75-2.07-.84-.36-2.22-.6-4.14-.72v-1.8c6.96,.18,17.46,.27,31.5,.27,8.82,0,15.09-.09,18.81-.27-.42,5.64-.63,10.68-.63,15.12,0,2.76,.09,4.92,.27,6.48h-2.07c-1.08-6.96-3.09-11.95-6.03-14.98-2.94-3.03-6.45-4.54-10.53-4.54h-1.17c-1.62,0-2.81,.13-3.55,.4-.75,.27-1.26,.78-1.53,1.53-.27,.75-.4,2-.4,3.73v23.04h.9c3.12,0,5.79-1.23,8.01-3.69,2.22-2.46,3.63-5.19,4.23-8.19h2.07c-.18,2.52-.27,5.34-.27,8.46v4.32c0,3.06,.18,7.32,.54,12.78h-2.07c-.54-3.42-1.94-6.26-4.19-8.51s-5.03-3.38-8.32-3.38h-.9v23.4c0,1.74,.13,2.99,.4,3.74,.27,.75,.78,1.26,1.53,1.53,.75,.27,1.93,.41,3.55,.41h2.97c3.48,0,6.78-1.69,9.9-5.08,3.12-3.39,5.34-8.8,6.66-16.25h2.07c-.18,2.16-.27,4.92-.27,8.28,0,6.12,.21,11.16,.63,15.12Z"/><path d="M219.08,89.28c2.4-.36,4.37-1.11,5.9-2.25,1.53-1.14,2.71-3.12,3.56-5.94,.84-2.82,1.26-6.75,1.26-11.79V20.07c0-2.28-.17-3.93-.5-4.95-.33-1.02-.92-1.71-1.75-2.07-.84-.36-2.22-.6-4.14-.72v-1.8c3.24,.18,8.25,.27,15.03,.27s12.36-.09,16.02-.27v1.8c-1.92,.12-3.32,.36-4.19,.72-.87,.36-1.46,1.05-1.75,2.07-.3,1.02-.45,2.67-.45,4.95V60.48c0,3.48-.11,6.54-.31,9.18-.21,2.64-.62,4.92-1.21,6.84-1.44,4.38-4.47,7.92-9.09,10.62-4.62,2.7-10.74,4.05-18.36,4.05v-1.89Z"/></g></svg>