<?xml version="1.0" encoding="UTF-8"?><svg id="Layer_1" xmlns="http://www.w3.org/2000/svg" viewBox="0 0 328.54 66.24"><defs><style>.cls-1{fill:#6d49f2;}</style></defs><rect class="cls-1" x="-5.83" y="15.06" width="340" height="70"/><g><path d="M46.5,3.87c4.57,2.58,8.13,6.32,10.66,11.21,2.53,4.89,3.79,10.73,3.79,17.5s-1.29,12.45-3.88,17.55c-2.58,5.1-6.19,9.06-10.82,11.88-4.63,2.82-9.9,4.23-15.82,4.23s-11.41-1.29-15.98-3.87c-4.57-2.58-8.13-6.31-10.66-11.21-2.53-4.89-3.79-10.72-3.79-17.5s1.29-12.45,3.87-17.55c2.58-5.1,6.19-9.06,10.82-11.88C19.32,1.41,24.59,0,30.51,0s11.41,1.29,15.98,3.87Zm-23.29,1.75c-2.02,2.67-3.57,6.41-4.64,11.21-1.08,4.8-1.61,10.29-1.61,16.47s.62,11.73,1.86,16.47c1.24,4.74,2.91,8.4,5,10.98,2.1,2.58,4.41,3.87,6.94,3.87s4.96-1.33,6.98-4.01c2.02-2.67,3.56-6.4,4.64-11.2,1.08-4.8,1.61-10.29,1.61-16.47s-.62-11.73-1.86-16.47c-1.24-4.74-2.91-8.4-5-10.98-2.1-2.58-4.41-3.87-6.94-3.87s-4.96,1.34-6.98,4Z"/><path d="M135.09,3.78c-.78,.36-1.31,1.05-1.57,2.07-.27,1.02-.4,2.67-.4,4.95V55.44c0,2.28,.15,3.93,.44,4.95,.3,1.02,.82,1.71,1.57,2.07,.75,.36,1.99,.6,3.71,.72v1.8c-3.28-.18-8.05-.27-14.29-.27s-11.3,.09-14.37,.27v-1.8c1.94-.12,3.35-.36,4.24-.72,.89-.36,1.49-1.05,1.82-2.07,.32-1.02,.48-2.67,.48-4.95V9.45l-19.45,55.44h-1.29L73.22,7.11V47.34c0,4.44,.16,7.64,.48,9.58,.32,1.95,1.04,3.38,2.14,4.28,1.1,.9,2.95,1.56,5.53,1.98v1.8c-2.21-.18-5.22-.27-9.04-.27-2.85,0-5.09,.09-6.7,.27v-1.8c1.67-.42,2.91-1.06,3.71-1.94,.81-.87,1.34-2.21,1.61-4.01,.27-1.8,.4-4.5,.4-8.1V10.8c0-2.28-.15-3.93-.44-4.95-.3-1.02-.82-1.71-1.57-2.07-.75-.36-1.99-.6-3.71-.72V1.26c1.61,.18,3.85,.27,6.7,.27,6.46,0,12.03-.09,16.71-.27l15.26,38.25L117.53,1.53h7.02c6.24,0,11-.09,14.29-.27v1.8c-1.72,.12-2.97,.36-3.75,.72Z"/><path d="M230.99,3.78c-.78,.36-1.31,1.05-1.57,2.07-.27,1.02-.4,2.67-.4,4.95V55.44c0,2.28,.15,3.93,.44,4.95,.3,1.02,.82,1.71,1.57,2.07,.75,.36,1.99,.6,3.71,.72v1.8c-3.28-.18-8.05-.27-14.29-.27s-11.3,.09-14.37,.27v-1.8c1.94-.12,3.35-.36,4.24-.72,.89-.36,1.49-1.05,1.82-2.07,.32-1.02,.48-2.67,.48-4.95V9.45l-19.45,55.44h-1.29L169.11,7.11V47.34c0,4.44,.16,7.64,.48,9.58,.32,1.95,1.04,3.38,2.14,4.28,1.1,.9,2.95,1.56,5.53,1.98v1.8c-2.21-.18-5.22-.27-9.04-.27-2.85,0-5.09,.09-6.7,.27v-1.8c1.67-.42,2.91-1.06,3.71-1.94,.81-.87,1.34-2.21,1.61-4.01,.27-1.8,.4-4.5,.4-8.1V10.8c0-2.28-.15-3.93-.44-4.95-.3-1.02-.82-1.71-1.57-2.07-.75-.36-1.99-.6-3.71-.72V1.26c1.61,.18,3.85,.27,6.7,.27,6.46,0,12.03-.09,16.71-.27l15.26,38.25L213.43,1.53h7.02c6.24,0,11-.09,14.29-.27v1.8c-1.72,.12-2.97,.36-3.75,.72Z"/><path d="M267.11,3.06c-1.72,.12-2.97,.36-3.75,.72-.78,.36-1.31,1.05-1.57,2.07-.27,1.02-.4,2.67-.4,4.95V55.44c0,2.28,.15,3.93,.44,4.95,.29,1.02,.82,1.71,1.57,2.07,.75,.36,1.99,.6,3.71,.72v1.8c-3.12-.18-7.62-.27-13.48-.27-6.51,0-11.3,.09-14.37,.27v-1.8c1.72-.12,2.97-.36,3.75-.72,.78-.36,1.3-1.05,1.57-2.07,.27-1.02,.4-2.67,.4-4.95V10.8c0-2.28-.15-3.93-.44-4.95-.3-1.02-.82-1.71-1.57-2.07-.75-.36-1.99-.6-3.71-.72V1.26c3.07,.18,7.86,.27,14.37,.27,5.81,0,10.31-.09,13.48-.27v1.8Z"/><path d="M311.83,1.53c2.47,1.02,4.73,2.46,6.78,4.32,.59,.54,1.13,.81,1.61,.81,.54,0,.97-.43,1.29-1.31,.32-.87,.56-2.23,.73-4.1h1.86c-.22,4.26-.32,11.76-.32,22.5h-1.86c-.38-4.74-1.08-8.49-2.1-11.25-1.02-2.76-2.8-5.1-5.33-7.02-1.13-.84-2.44-1.5-3.92-1.98-1.48-.48-2.95-.72-4.4-.72-3.87,0-7.01,1.52-9.4,4.54-2.4,3.03-4.09,6.86-5.09,11.48-1,4.62-1.49,9.45-1.49,14.49,0,10.44,1.14,18.24,3.43,23.4,2.29,5.16,5.48,7.74,9.57,7.74,1.67,0,2.99-.36,3.96-1.08,1.13-.9,1.7-2.4,1.7-4.5v-9c0-3-.22-5.2-.65-6.61-.43-1.41-1.2-2.37-2.3-2.88-1.1-.51-2.84-.82-5.21-.94v-1.8c3.66,.18,8.8,.27,15.42,.27,5.54,0,9.69-.09,12.43-.27v1.8c-.97,.12-1.68,.36-2.14,.72-.46,.36-.77,1.05-.93,2.07-.16,1.02-.24,2.67-.24,4.95v17.82h-1.61c-.05-1.26-.3-2.43-.73-3.51-.43-1.08-1.02-1.62-1.78-1.62-1.13,0-2.96,.69-5.49,2.07-5.38,2.88-9.93,4.32-13.64,4.32-10.01,0-17.57-2.82-22.68-8.46-5.11-5.64-7.67-13.68-7.67-24.12,0-6.6,1.33-12.45,4-17.55,2.66-5.1,6.36-9.06,11.1-11.88,4.73-2.82,10.14-4.23,16.23-4.23,3.44,0,6.4,.51,8.88,1.53Z"/></g></svg>