<?xml version="1.0" encoding="UTF-8"?><svg id="Layer_1" xmlns="http://www.w3.org/2000/svg" viewBox="0 0 340 91.86"><defs><style>.cls-1{fill:#6d49f2;}</style></defs><rect class="cls-1" y="21.86" width="340" height="70"/><path d="M70.19,13c4.57,2.58,8.13,6.32,10.66,11.21,2.53,4.89,3.79,10.73,3.79,17.5s-1.29,12.45-3.88,17.55c-2.58,5.1-6.19,9.06-10.82,11.88-4.63,2.82-9.9,4.23-15.82,4.23s-11.41-1.29-15.98-3.87c-4.57-2.58-8.13-6.31-10.66-11.21-2.53-4.89-3.79-10.72-3.79-17.5s1.29-12.45,3.87-17.55c2.58-5.1,6.19-9.06,10.82-11.88,4.63-2.82,9.9-4.23,15.82-4.23s11.41,1.29,15.98,3.87Zm-23.29,1.75c-2.02,2.67-3.57,6.41-4.64,11.21-1.08,4.8-1.61,10.29-1.61,16.47s.62,11.73,1.86,16.47c1.24,4.74,2.91,8.4,5,10.98,2.1,2.58,4.41,3.87,6.94,3.87s4.96-1.33,6.98-4.01c2.02-2.67,3.56-6.4,4.64-11.2,1.08-4.8,1.61-10.29,1.61-16.47s-.62-11.73-1.86-16.47c-1.24-4.74-2.91-8.4-5-10.98-2.1-2.58-4.41-3.87-6.94-3.87s-4.96,1.34-6.98,4Z"/><path d="M158.78,12.91c-.78,.36-1.31,1.05-1.57,2.07-.27,1.02-.4,2.67-.4,4.95v44.64c0,2.28,.15,3.93,.44,4.95,.3,1.02,.82,1.71,1.57,2.07,.75,.36,1.99,.6,3.71,.72v1.8c-3.28-.18-8.05-.27-14.29-.27s-11.3,.09-14.37,.27v-1.8c1.94-.12,3.35-.36,4.24-.72,.89-.36,1.49-1.05,1.82-2.07,.32-1.02,.48-2.67,.48-4.95V18.58l-19.45,55.44h-1.29l-22.76-57.78V56.47c0,4.44,.16,7.64,.48,9.58,.32,1.95,1.04,3.38,2.14,4.28,1.1,.9,2.95,1.56,5.53,1.98v1.8c-2.21-.18-5.22-.27-9.04-.27-2.85,0-5.09,.09-6.7,.27v-1.8c1.67-.42,2.91-1.06,3.71-1.94,.81-.87,1.34-2.21,1.61-4.01,.27-1.8,.4-4.5,.4-8.1V19.93c0-2.28-.15-3.93-.44-4.95-.3-1.02-.82-1.71-1.57-2.07-.75-.36-1.99-.6-3.71-.72v-1.8c1.61,.18,3.85,.27,6.7,.27,6.46,0,12.03-.09,16.71-.27l15.26,38.25,13.24-37.98h7.02c6.24,0,11-.09,14.29-.27v1.8c-1.72,.12-2.97,.36-3.75,.72Z"/><path d="M230.88,36.03c-.7,.33-1.18,.95-1.42,1.87-.24,.92-.36,2.41-.36,4.47v40.27c0,2.06,.13,3.55,.4,4.47,.27,.92,.74,1.54,1.42,1.87,.68,.32,1.8,.54,3.35,.65v1.62c-2.96-.16-7.26-.24-12.89-.24s-10.19,.08-12.96,.24v-1.62c1.75-.11,3.02-.33,3.82-.65,.8-.32,1.35-.95,1.64-1.87,.29-.92,.44-2.41,.44-4.47V41.14l-17.55,50.01h-1.17l-20.54-52.12v36.29c0,4.01,.15,6.89,.44,8.65,.29,1.76,.93,3.04,1.93,3.86,.99,.81,2.66,1.41,4.99,1.79v1.62c-1.99-.16-4.71-.24-8.16-.24-2.57,0-4.59,.08-6.04,.24v-1.62c1.5-.38,2.62-.96,3.35-1.75,.73-.78,1.21-1.99,1.46-3.61,.24-1.62,.36-4.06,.36-7.31V42.36c0-2.06-.13-3.54-.4-4.47-.27-.92-.74-1.54-1.42-1.87-.68-.32-1.8-.54-3.35-.65v-1.62c1.46,.16,3.47,.24,6.04,.24,5.83,0,10.85-.08,15.07-.24l13.76,34.51,11.94-34.26h6.34c5.63,0,9.93-.08,12.89-.24v1.62c-1.55,.11-2.68,.32-3.39,.65Z"/><path d="M263.47,35.38c-1.55,.11-2.68,.32-3.39,.65-.7,.33-1.18,.95-1.42,1.87-.24,.92-.36,2.41-.36,4.47v40.27c0,2.06,.13,3.55,.4,4.47,.27,.92,.74,1.54,1.42,1.87,.68,.32,1.8,.54,3.35,.65v1.62c-2.82-.16-6.87-.24-12.16-.24-5.87,0-10.19,.08-12.96,.24v-1.62c1.55-.11,2.68-.33,3.39-.65,.7-.32,1.18-.95,1.42-1.87,.24-.92,.36-2.41,.36-4.47V42.36c0-2.06-.13-3.54-.4-4.47-.27-.92-.74-1.54-1.42-1.87-.68-.32-1.8-.54-3.35-.65v-1.62c2.77,.16,7.09,.24,12.96,.24,5.24,0,9.3-.08,12.16-.24v1.62Z"/><path d="M303.81,34c2.23,.92,4.27,2.22,6.12,3.9,.53,.49,1.02,.73,1.46,.73,.48,0,.87-.39,1.17-1.18,.29-.78,.51-2.02,.65-3.69h1.68c-.19,3.84-.29,10.61-.29,20.3h-1.68c-.34-4.27-.97-7.66-1.89-10.15-.92-2.49-2.52-4.6-4.81-6.33-1.02-.76-2.2-1.35-3.53-1.79-1.34-.43-2.66-.65-3.97-.65-3.5,0-6.32,1.37-8.48,4.1-2.16,2.73-3.69,6.18-4.59,10.35-.9,4.17-1.35,8.52-1.35,13.07,0,9.42,1.03,16.45,3.09,21.11,2.06,4.66,4.94,6.98,8.63,6.98,1.5,0,2.69-.32,3.57-.97,1.02-.81,1.53-2.16,1.53-4.06v-8.12c0-2.71-.19-4.7-.58-5.97-.39-1.27-1.08-2.14-2.08-2.6-1-.46-2.56-.74-4.7-.85v-1.62c3.3,.16,7.94,.24,13.91,.24,5,0,8.74-.08,11.21-.24v1.62c-.87,.11-1.52,.32-1.93,.65-.41,.32-.69,.95-.84,1.87-.15,.92-.22,2.41-.22,4.47v16.08h-1.46c-.05-1.14-.27-2.19-.66-3.17-.39-.97-.92-1.46-1.6-1.46-1.02,0-2.67,.62-4.95,1.87-4.85,2.6-8.96,3.9-12.31,3.9-9.03,0-15.85-2.54-20.46-7.63-4.61-5.09-6.92-12.34-6.92-21.76,0-5.95,1.2-11.23,3.6-15.83,2.4-4.6,5.74-8.17,10.01-10.72,4.27-2.54,9.15-3.82,14.64-3.82,3.11,0,5.78,.46,8.01,1.38Z"/></svg>