<?xml version="1.0" encoding="UTF-8"?><svg id="Layer_1" xmlns="http://www.w3.org/2000/svg" viewBox="0 0 340 91.86"><defs><style>.cls-1{fill:#498af2;}</style></defs><rect class="cls-1" y="21.86" width="340" height="70"/><path d="M235.07,35.87c-.7,.33-1.18,.95-1.42,1.87-.24,.92-.36,2.41-.36,4.47v40.27c0,2.06,.13,3.55,.4,4.47,.27,.92,.74,1.54,1.42,1.87,.68,.32,1.8,.54,3.35,.65v1.62c-2.96-.16-7.26-.24-12.89-.24s-10.19,.08-12.96,.24v-1.62c1.75-.11,3.02-.33,3.82-.65,.8-.32,1.35-.95,1.64-1.87,.29-.92,.44-2.41,.44-4.47V40.98l-17.55,50.01h-1.17l-20.54-52.12v36.29c0,4.01,.15,6.89,.44,8.65,.29,1.76,.93,3.04,1.93,3.86,.99,.81,2.66,1.41,4.99,1.79v1.62c-1.99-.16-4.71-.24-8.16-.24-2.57,0-4.59,.08-6.04,.24v-1.62c1.5-.38,2.62-.96,3.35-1.75,.73-.78,1.21-1.99,1.46-3.61,.24-1.62,.36-4.06,.36-7.31V42.2c0-2.06-.13-3.54-.4-4.47-.27-.92-.74-1.54-1.42-1.87-.68-.32-1.8-.54-3.35-.65v-1.62c1.46,.16,3.47,.24,6.04,.24,5.83,0,10.85-.08,15.07-.24l13.76,34.51,11.94-34.26h6.34c5.63,0,9.93-.08,12.89-.24v1.62c-1.55,.11-2.68,.32-3.39,.65Z"/><path d="M267.66,35.22c-1.55,.11-2.68,.32-3.39,.65-.7,.33-1.18,.95-1.42,1.87-.24,.92-.36,2.41-.36,4.47v40.27c0,2.06,.13,3.55,.4,4.47,.27,.92,.74,1.54,1.42,1.87,.68,.32,1.8,.54,3.35,.65v1.62c-2.82-.16-6.87-.24-12.16-.24-5.87,0-10.19,.08-12.96,.24v-1.62c1.55-.11,2.68-.33,3.39-.65,.7-.32,1.18-.95,1.42-1.87,.24-.92,.36-2.41,.36-4.47V42.2c0-2.06-.13-3.54-.4-4.47-.27-.92-.74-1.54-1.42-1.87-.68-.32-1.8-.54-3.35-.65v-1.62c2.77,.16,7.09,.24,12.96,.24,5.24,0,9.3-.08,12.16-.24v1.62Z"/><path d="M308,33.84c2.23,.92,4.27,2.22,6.12,3.9,.53,.49,1.02,.73,1.46,.73,.48,0,.87-.39,1.17-1.18,.29-.78,.51-2.02,.65-3.69h1.68c-.19,3.84-.29,10.61-.29,20.3h-1.68c-.34-4.27-.97-7.66-1.89-10.15-.92-2.49-2.52-4.6-4.81-6.33-1.02-.76-2.2-1.35-3.53-1.79-1.34-.43-2.66-.65-3.97-.65-3.5,0-6.32,1.37-8.48,4.1-2.16,2.73-3.69,6.18-4.59,10.35-.9,4.17-1.35,8.52-1.35,13.07,0,9.42,1.03,16.45,3.09,21.11,2.06,4.66,4.94,6.98,8.63,6.98,1.5,0,2.69-.32,3.57-.97,1.02-.81,1.53-2.16,1.53-4.06v-8.12c0-2.71-.19-4.7-.58-5.97-.39-1.27-1.08-2.14-2.08-2.6-1-.46-2.56-.74-4.7-.85v-1.62c3.3,.16,7.94,.24,13.91,.24,5,0,8.74-.08,11.21-.24v1.62c-.87,.11-1.52,.32-1.93,.65-.41,.32-.69,.95-.84,1.87-.15,.92-.22,2.41-.22,4.47v16.08h-1.46c-.05-1.14-.27-2.19-.66-3.17-.39-.97-.92-1.46-1.6-1.46-1.02,0-2.67,.62-4.95,1.87-4.85,2.6-8.96,3.9-12.31,3.9-9.03,0-15.85-2.54-20.46-7.63-4.61-5.09-6.92-12.34-6.92-21.76,0-5.95,1.2-11.23,3.6-15.83,2.4-4.6,5.74-8.17,10.01-10.72,4.27-2.54,9.15-3.82,14.64-3.82,3.11,0,5.78,.46,8.01,1.38Z"/><g><path d="M69.2,8.84c5.1,2.58,9.06,6.32,11.88,11.21,2.82,4.89,4.23,10.73,4.23,17.5s-1.44,12.45-4.32,17.55c-2.88,5.1-6.9,9.06-12.06,11.88-5.16,2.82-11.04,4.23-17.64,4.23s-12.72-1.29-17.82-3.87c-5.1-2.58-9.06-6.31-11.88-11.21-2.82-4.89-4.23-10.72-4.23-17.5s1.44-12.45,4.32-17.55c2.88-5.1,6.9-9.06,12.06-11.88,5.16-2.82,11.04-4.23,17.64-4.23s12.72,1.29,17.82,3.87Zm-25.96,1.75c-2.25,2.67-3.98,6.41-5.18,11.21-1.2,4.8-1.8,10.29-1.8,16.47s.69,11.73,2.07,16.47c1.38,4.74,3.24,8.4,5.58,10.98,2.34,2.58,4.92,3.87,7.74,3.87s5.54-1.33,7.79-4.01c2.25-2.67,3.97-6.4,5.18-11.2,1.2-4.8,1.8-10.29,1.8-16.47s-.69-11.73-2.07-16.47c-1.38-4.74-3.24-8.4-5.58-10.98-2.34-2.58-4.92-3.87-7.74-3.87s-5.53,1.34-7.78,4Z"/><path d="M167.98,8.75c-.87,.36-1.46,1.05-1.75,2.07-.3,1.02-.45,2.67-.45,4.95V60.41c0,2.28,.16,3.93,.5,4.95,.33,1.02,.91,1.71,1.75,2.07,.84,.36,2.22,.6,4.14,.72v1.8c-3.66-.18-8.97-.27-15.93-.27s-12.6,.09-16.02,.27v-1.8c2.16-.12,3.74-.36,4.73-.72,.99-.36,1.67-1.05,2.02-2.07,.36-1.02,.54-2.67,.54-4.95V14.42l-21.69,55.44h-1.44L98.99,12.08V52.31c0,4.44,.18,7.64,.54,9.58,.36,1.95,1.15,3.38,2.38,4.28,1.23,.9,3.29,1.56,6.17,1.98v1.8c-2.46-.18-5.82-.27-10.08-.27-3.18,0-5.67,.09-7.47,.27v-1.8c1.86-.42,3.24-1.06,4.14-1.94,.9-.87,1.5-2.21,1.8-4.01,.3-1.8,.45-4.5,.45-8.1V15.77c0-2.28-.17-3.93-.49-4.95-.33-1.02-.92-1.71-1.76-2.07-.84-.36-2.22-.6-4.14-.72v-1.8c1.8,.18,4.29,.27,7.47,.27,7.2,0,13.41-.09,18.63-.27l17.01,38.25,14.76-37.98h7.83c6.96,0,12.27-.09,15.93-.27v1.8c-1.92,.12-3.32,.36-4.19,.72Z"/></g></svg>