<?xml version="1.0" encoding="UTF-8"?><svg id="Layer_1" xmlns="http://www.w3.org/2000/svg" viewBox="0 0 340 91.86"><defs><style>.cls-1{fill:#57bf26;}</style></defs><rect class="cls-1" y="21.86" width="340" height="70"/><g><path d="M175.15,25.09c0,2.72,.09,4.84,.27,6.38h-2.04c-1.95-7.73-4.46-13.31-7.53-16.74-3.07-3.42-6.38-5.14-9.92-5.14h-.09V60.24c0,2.48,.25,4.28,.75,5.4,.5,1.12,1.42,1.88,2.75,2.26,1.33,.38,3.44,.58,6.33,.58v1.77c-8.32-.18-14.79-.27-19.39-.27-4.19,0-10.27,.09-18.24,.27v-1.77c2.89,0,5-.19,6.33-.58,1.33-.38,2.24-1.14,2.75-2.26,.5-1.12,.75-2.92,.75-5.4V9.59h-.09c-3.6,0-6.92,1.7-9.96,5.09-3.04,3.4-5.53,8.99-7.48,16.78h-2.04c.18-1.53,.27-3.66,.27-6.38,0-5.14-.21-10.98-.62-17.53,5.61,.18,15.26,.27,28.96,.27s23.26-.09,28.87-.27c-.41,6.55-.62,12.4-.62,17.53Z"/><path d="M127.53,70.76v-2.78h.5c2.84,0,4.92-.19,6.19-.56,1.19-.34,1.98-.99,2.43-1.98,.47-1.05,.71-2.8,.71-5.2V10.1c-3.33,.15-6.39,1.8-9.18,4.91-2.97,3.32-5.45,8.89-7.37,16.57l-.09,.38h-2.99l.06-.56c.17-1.51,.26-3.63,.26-6.32,0-5.09-.21-10.98-.62-17.5l-.03-.55,.55,.02c5.59,.18,15.33,.27,28.94,.27s23.27-.09,28.85-.27l.55-.02-.03,.55c-.41,6.5-.62,12.39-.62,17.5,0,2.69,.09,4.81,.26,6.32l.06,.56h-2.99l-.1-.38c-1.92-7.62-4.41-13.18-7.42-16.53-2.84-3.16-5.91-4.83-9.13-4.96V60.24c0,2.4,.24,4.15,.71,5.2,.44,.99,1.24,1.64,2.43,1.98,1.27,.37,3.36,.56,6.19,.56h.5v2.78h-.51c-8.27-.19-14.8-.28-19.38-.28-4.18,0-10.31,.09-18.23,.27h-.51Zm18.74-1.27c4.5,0,10.85,.09,18.89,.25v-.76c-2.71-.02-4.67-.22-5.97-.59-1.47-.42-2.5-1.28-3.06-2.54-.54-1.19-.8-3.03-.8-5.61V9.09h.5c3.76,0,7.22,1.78,10.38,5.3,3.06,3.42,5.6,8.99,7.54,16.57h1.09c-.14-1.49-.21-3.47-.21-5.88,0-4.99,.2-10.71,.59-17.02-5.67,.17-15.2,.25-28.34,.25s-22.75-.08-28.43-.25c.39,6.33,.59,12.05,.59,17.02,0,2.41-.07,4.38-.21,5.88h1.09c1.95-7.64,4.47-13.23,7.5-16.62,3.12-3.49,6.6-5.26,10.34-5.26h.5l.09,.5V60.24c0,2.57-.26,4.41-.8,5.61-.56,1.26-1.59,2.11-3.06,2.53-1.3,.38-3.26,.57-5.97,.59v.76c7.68-.17,13.65-.25,17.74-.25Z"/></g><path d="M215.26,32.96c3.22,1.85,4.84,4.38,4.84,7.61,0,3.46-1.9,6.55-5.7,9.26-3.8,2.72-9.17,4.55-16.1,5.5,.73-.06,1.79-.09,3.19-.09,6.69,0,12.01,1.24,15.97,3.71,3.95,2.48,5.93,5.83,5.93,10.07s-2.07,8.25-6.2,11.68c-4.14,3.43-9.46,6.07-15.97,7.92-6.51,1.85-13.11,2.77-19.8,2.77v-1.88c3.83-.18,7.68-1.07,11.54-2.68,3.86-1.61,7.08-3.92,9.67-6.94,2.58-3.01,3.88-6.61,3.88-10.78,0-3.52-.85-6.4-2.55-8.64-1.7-2.24-4.01-3.47-6.93-3.71-1.22,.54-2.18,.93-2.87,1.16-.7,.24-1.41,.36-2.14,.36-.61,0-1.06-.1-1.37-.31-.31-.21-.46-.58-.46-1.12,0-.72,.3-1.24,.91-1.57,.61-.33,1.4-.49,2.37-.49,.61,0,1.19,.03,1.73,.09,.55,.06,1.03,.12,1.46,.18,4.68-2.98,7.02-6.77,7.02-11.36,0-2.56-.72-4.5-2.14-5.82-1.43-1.31-3.45-1.97-6.07-1.97-2.37,0-4.58,.55-6.61,1.66-2.04,1.1-3.76,2.67-5.15,4.7l-1.64-.9c2.07-3.4,4.71-6.11,7.94-8.14,3.22-2.03,7.51-3.04,12.86-3.04,5.05,0,9.18,.93,12.41,2.77Z"/></svg>