<?xml version="1.0" encoding="UTF-8"?><svg id="Layer_1" xmlns="http://www.w3.org/2000/svg" viewBox="0 0 340 91.86"><defs><style>.cls-1{fill:#f2055c;}</style></defs><rect class="cls-1" y="21.86" width="340" height="70"/><g><path d="M175.15,25.09c0,2.72,.09,4.84,.27,6.38h-2.04c-1.95-7.73-4.46-13.31-7.53-16.74-3.07-3.42-6.38-5.14-9.92-5.14h-.09V60.24c0,2.48,.25,4.28,.75,5.4,.5,1.12,1.42,1.88,2.75,2.26,1.33,.38,3.44,.58,6.33,.58v1.77c-8.32-.18-14.79-.27-19.39-.27-4.19,0-10.27,.09-18.24,.27v-1.77c2.89,0,5-.19,6.33-.58,1.33-.38,2.24-1.14,2.75-2.26,.5-1.12,.75-2.92,.75-5.4V9.59h-.09c-3.6,0-6.92,1.7-9.96,5.09-3.04,3.4-5.53,8.99-7.48,16.78h-2.04c.18-1.53,.27-3.66,.27-6.38,0-5.14-.21-10.98-.62-17.53,5.61,.18,15.26,.27,28.96,.27s23.26-.09,28.87-.27c-.41,6.55-.62,12.4-.62,17.53Z"/><path d="M127.53,70.76v-2.78h.5c2.84,0,4.92-.19,6.19-.56,1.19-.34,1.98-.99,2.43-1.98,.47-1.05,.71-2.8,.71-5.2V10.1c-3.33,.15-6.39,1.8-9.18,4.91-2.97,3.32-5.45,8.89-7.37,16.57l-.09,.38h-2.99l.06-.56c.17-1.51,.26-3.63,.26-6.32,0-5.09-.21-10.98-.62-17.5l-.03-.55,.55,.02c5.59,.18,15.33,.27,28.94,.27s23.27-.09,28.85-.27l.55-.02-.03,.55c-.41,6.5-.62,12.39-.62,17.5,0,2.69,.09,4.81,.26,6.32l.06,.56h-2.99l-.1-.38c-1.92-7.62-4.41-13.18-7.42-16.53-2.84-3.16-5.91-4.83-9.13-4.96V60.24c0,2.4,.24,4.15,.71,5.2,.44,.99,1.24,1.64,2.43,1.98,1.27,.37,3.36,.56,6.19,.56h.5v2.78h-.51c-8.27-.19-14.8-.28-19.38-.28-4.18,0-10.31,.09-18.23,.27h-.51Zm18.74-1.27c4.5,0,10.85,.09,18.89,.25v-.76c-2.71-.02-4.67-.22-5.97-.59-1.47-.42-2.5-1.28-3.06-2.54-.54-1.19-.8-3.03-.8-5.61V9.09h.5c3.76,0,7.22,1.78,10.38,5.3,3.06,3.42,5.6,8.99,7.54,16.57h1.09c-.14-1.49-.21-3.47-.21-5.88,0-4.99,.2-10.71,.59-17.02-5.67,.17-15.2,.25-28.34,.25s-22.75-.08-28.43-.25c.39,6.33,.59,12.05,.59,17.02,0,2.41-.07,4.38-.21,5.88h1.09c1.95-7.64,4.47-13.23,7.5-16.62,3.12-3.49,6.6-5.26,10.34-5.26h.5l.09,.5V60.24c0,2.57-.26,4.41-.8,5.61-.56,1.26-1.59,2.11-3.06,2.53-1.3,.38-3.26,.57-5.97,.59v.76c7.68-.17,13.65-.25,17.74-.25Z"/></g><path d="M217.74,38.28c3.41,2.42,5.11,5.75,5.11,10.02,0,2.84-.89,5.45-2.66,7.83-1.78,2.38-3.91,4.46-6.39,6.23-2.49,1.78-5.79,3.87-9.91,6.29-5.11,2.91-8.74,5.29-10.87,7.14h24.08c1.92,0,3.36-.12,4.32-.37,.96-.25,1.61-.67,1.97-1.28,.35-.6,.64-1.51,.85-2.72h2.45c0,9.66,.14,16.51,.43,20.56-1.56-.36-6.85-.53-15.88-.53h-35.05v-2.24c-.28,.28,1.28-1.17,4.69-4.37,4.05-3.62,7.49-6.93,10.33-9.91,2.84-2.98,5.33-6.41,7.46-10.28,2.13-3.87,3.2-7.9,3.2-12.09,0-3.62-.78-6.27-2.34-7.94-1.56-1.67-3.94-2.5-7.14-2.5-2.98,0-5.61,.6-7.88,1.81-2.27,1.21-4.4,2.98-6.39,5.33l-1.81-1.28c2.77-4.19,6.34-7.46,10.71-9.8,4.37-2.34,9.96-3.52,16.78-3.52,5.9,0,10.55,1.21,13.96,3.62Z"/></svg>